<svg width="146" height="54" viewBox="0 0 146 54" fill="none" xmlns="http://www.w3.org/2000/svg">
<circle cx="27" cy="27" r="27" fill="white"/>
<path d="M33.0039 17C31.3471 17 30.0039 15.6569 30.0039 14C30.0039 12.3431 31.3471 11 33.0039 11C34.6608 11 36.0039 12.3431 36.0039 14C36.0039 15.6569 34.6608 17 33.0039 17ZM24.6084 39.9785C18.4323 39.9785 14.0029 35.5483 14.0029 28.9463C14.0029 22.3871 18.4321 18.0002 24.9912 18C31.5931 18 36.0233 22.4294 36.0234 29.0312V39.5947H30.9121V37.5498C29.8899 38.8702 27.7177 39.9785 24.6084 39.9785ZM25.0342 35.293C28.5693 35.293 30.912 32.9503 30.9121 28.9893C30.9121 25.0281 28.5694 22.6855 25.0342 22.6855C21.4564 22.6856 19.1133 25.0281 19.1133 28.9893C19.1134 32.9502 21.4565 35.2929 25.0342 35.293Z" fill="#FF6200"/>
<path d="M61.688 35V20.9205H64.2022V35H61.688ZM70.4288 24.7622C73.7475 24.7622 75.0549 27.2562 75.0549 29.0061V35H72.6413V29.0665C72.6413 27.6384 71.5954 26.9948 70.4288 26.9948C69.2622 26.9948 68.2163 27.6384 68.2163 29.0665V35H65.8026V29.0061C65.8026 27.2562 67.11 24.7622 70.4288 24.7622ZM81.9684 20.7797V22.9922C80.319 22.9922 79.5346 23.5553 79.3536 24.9432H81.6264V27.1557H79.3335V35H76.9198V27.1557H75.9141V24.9432H76.9399C77.1612 22.2278 78.891 20.7797 81.9684 20.7797ZM82.4977 29.3682C82.4977 26.3109 84.4287 24.7622 87.4859 24.7622V26.9747C85.8768 26.9747 84.9114 27.7591 84.9114 29.3682V35H82.4977V29.3682ZM88.6916 22.0267C88.6916 21.3026 89.2749 20.6992 90.0191 20.6992C90.7634 20.6992 91.3466 21.3026 91.3466 22.0267C91.3466 22.791 90.7634 23.3743 90.0191 23.3743C89.2749 23.3743 88.6916 22.791 88.6916 22.0267ZM88.8123 35V24.9432H91.226V35H88.8123ZM97.3567 24.7622C100.675 24.7622 101.983 27.2562 101.983 29.0061V35H99.5692V29.0665C99.5692 27.6384 98.5233 26.9948 97.3567 26.9948C96.1901 26.9948 95.1442 27.6384 95.1442 29.0665V35H92.7306V29.0061C92.7306 27.2562 94.0379 24.7622 97.3567 24.7622ZM113.68 29.9917V34.5977C113.68 37.2527 111.688 39.1434 108.651 39.1434C106.62 39.1434 104.99 38.2785 103.945 36.951L105.916 35.5632C106.459 36.2269 107.283 36.9309 108.671 36.9309C110.341 36.9309 111.266 35.9453 111.266 34.5977V34.0144C110.783 34.638 109.757 35.1609 108.289 35.1609C105.373 35.1609 103.281 33.0691 103.281 29.9515C103.281 26.854 105.373 24.7823 108.47 24.7823C111.588 24.7823 113.68 26.8741 113.68 29.9917ZM111.266 29.9716C111.266 28.101 110.16 26.9948 108.49 26.9948C106.801 26.9948 105.694 28.101 105.694 29.9716C105.694 31.8422 106.801 32.9484 108.49 32.9484C110.16 32.9484 111.266 31.8422 111.266 29.9716ZM117.574 28.5636H122.623C122.2 27.5781 121.295 27.0149 120.089 27.0149C118.902 27.0149 117.997 27.5781 117.574 28.5636ZM120.089 32.9685C121.094 32.9685 121.879 32.5864 122.361 31.8824H124.996C124.333 33.9139 122.542 35.181 120.109 35.181C116.991 35.181 114.899 33.0892 114.899 29.9716C114.899 26.8741 116.991 24.8024 120.109 24.8024C123.226 24.8024 125.298 26.8741 125.298 29.9716C125.298 30.2532 125.278 30.5147 125.258 30.7761H117.393C117.655 32.164 118.66 32.9685 120.089 32.9685ZM126.622 33.6926C126.622 32.8076 127.225 32.2243 128.11 32.2243C128.995 32.2243 129.599 32.8076 129.599 33.6926C129.599 34.5977 128.995 35.181 128.11 35.181C127.225 35.181 126.622 34.5977 126.622 33.6926ZM136.096 24.8024C139.213 24.8024 141.305 26.8942 141.305 30.0118V35H138.892V34.0345C138.409 34.6581 137.383 35.181 135.915 35.181C132.998 35.181 130.906 33.0892 130.906 29.9716C130.906 26.8741 132.998 24.8024 136.096 24.8024ZM138.892 29.9917C138.892 28.1211 137.785 27.0149 136.116 27.0149C134.426 27.0149 133.32 28.1211 133.32 29.9917C133.32 31.8623 134.426 32.9685 136.116 32.9685C137.785 32.9685 138.892 31.8623 138.892 29.9917ZM142.784 22.0267C142.784 21.3026 143.367 20.6992 144.111 20.6992C144.856 20.6992 145.439 21.3026 145.439 22.0267C145.439 22.791 144.856 23.3743 144.111 23.3743C143.367 23.3743 142.784 22.791 142.784 22.0267ZM142.905 35V24.9432H145.318V35H142.905Z" fill="white"/>
</svg>
