<svg width="124" height="34" viewBox="0 0 124 34" fill="none" xmlns="http://www.w3.org/2000/svg">
<circle cx="17" cy="17" r="17" fill="white"/>
<path d="M21.4375 9.6084C20.213 9.60831 19.2209 8.61604 19.2207 7.3916C19.2207 6.16703 20.2129 5.17392 21.4375 5.17383C22.6621 5.17383 23.6553 6.16697 23.6553 7.3916C23.6551 8.6161 22.662 9.6084 21.4375 9.6084ZM15.3623 25.8096C10.7977 25.8094 7.52356 22.5357 7.52344 17.6562C7.52344 12.808 10.7982 9.56543 15.6465 9.56543C20.5259 9.56564 23.7997 12.8393 23.7998 17.7188V25.5264H20.0225V24.0156C19.2669 24.9916 17.6605 25.8096 15.3623 25.8096ZM15.6777 22.3467C18.2906 22.3466 20.0224 20.6152 20.0225 17.6875C20.0225 14.7597 18.2906 13.0284 15.6777 13.0283C13.0332 13.0283 11.3018 14.7597 11.3018 17.6875C11.3018 20.6153 13.0332 22.3467 15.6777 22.3467Z" fill="#FF6200"/>
<path d="M37.8139 24V9.92045H40.3281V24H37.8139ZM46.5547 13.7622C49.8735 13.7622 51.1808 16.2562 51.1808 18.0061V24H48.7672V18.0665C48.7672 16.6384 47.7213 15.9948 46.5547 15.9948C45.3881 15.9948 44.3422 16.6384 44.3422 18.0665V24H41.9286V18.0061C41.9286 16.2562 43.236 13.7622 46.5547 13.7622ZM58.0943 9.77966V11.9922C56.445 11.9922 55.6605 12.5553 55.4795 13.9432H57.7523V16.1557H55.4594V24H53.0458V16.1557H52.0401V13.9432H53.0659C53.2871 11.2278 55.0169 9.77966 58.0943 9.77966ZM58.6237 18.3682C58.6237 15.3109 60.5546 13.7622 63.6119 13.7622V15.9747C62.0028 15.9747 61.0373 16.7591 61.0373 18.3682V24H58.6237V18.3682ZM64.8176 11.0267C64.8176 10.3026 65.4009 9.6992 66.1451 9.6992C66.8893 9.6992 67.4726 10.3026 67.4726 11.0267C67.4726 11.791 66.8893 12.3743 66.1451 12.3743C65.4009 12.3743 64.8176 11.791 64.8176 11.0267ZM64.9383 24V13.9432H67.3519V24H64.9383ZM73.4826 13.7622C76.8014 13.7622 78.1088 16.2562 78.1088 18.0061V24H75.6951V18.0665C75.6951 16.6384 74.6492 15.9948 73.4826 15.9948C72.316 15.9948 71.2701 16.6384 71.2701 18.0665V24H68.8565V18.0061C68.8565 16.2562 70.1639 13.7622 73.4826 13.7622ZM89.8055 18.9917V23.5977C89.8055 26.2527 87.8142 28.1434 84.7771 28.1434C82.7456 28.1434 81.1164 27.2785 80.0705 25.951L82.0416 24.5632C82.5847 25.2269 83.4093 25.9309 84.7972 25.9309C86.4666 25.9309 87.3918 24.9453 87.3918 23.5977V23.0144C86.9091 23.638 85.8833 24.1609 84.415 24.1609C81.4985 24.1609 79.4067 22.0691 79.4067 18.9515C79.4067 15.854 81.4985 13.7823 84.596 13.7823C87.7136 13.7823 89.8055 15.8741 89.8055 18.9917ZM87.3918 18.9716C87.3918 17.101 86.2856 15.9948 84.6161 15.9948C82.9266 15.9948 81.8204 17.101 81.8204 18.9716C81.8204 20.8422 82.9266 21.9484 84.6161 21.9484C86.2856 21.9484 87.3918 20.8422 87.3918 18.9716ZM93.7003 17.5636H98.7488C98.3264 16.5781 97.4213 16.0149 96.2145 16.0149C95.0278 16.0149 94.1227 16.5781 93.7003 17.5636ZM96.2145 21.9685C97.2202 21.9685 98.0046 21.5864 98.4873 20.8824H101.122C100.458 22.9139 98.6684 24.181 96.2346 24.181C93.117 24.181 91.0252 22.0892 91.0252 18.9716C91.0252 15.8741 93.117 13.8024 96.2346 13.8024C99.3522 13.8024 101.424 15.8741 101.424 18.9716C101.424 19.2532 101.404 19.5147 101.384 19.7761H93.5193C93.7807 21.164 94.7864 21.9685 96.2145 21.9685ZM107.575 24L112.402 9.92045H115.037L119.865 24H117.23L116.063 20.279H111.377L110.21 24H107.575ZM112.101 17.9659H115.319L113.71 12.857L112.101 17.9659ZM120.681 24V9.92045H123.195V24H120.681Z" fill="white"/>
</svg>
