<svg width="127" height="34" viewBox="0 0 127 34" fill="none" xmlns="http://www.w3.org/2000/svg">
<circle cx="17" cy="17" r="17" fill="white"/>
<path d="M21.4375 9.6084C20.213 9.60831 19.2209 8.61604 19.2207 7.3916C19.2207 6.16703 20.2129 5.17392 21.4375 5.17383C22.6621 5.17383 23.6553 6.16697 23.6553 7.3916C23.6551 8.6161 22.662 9.6084 21.4375 9.6084ZM15.3623 25.8096C10.7977 25.8094 7.52356 22.5357 7.52344 17.6562C7.52344 12.808 10.7982 9.56543 15.6465 9.56543C20.5259 9.56564 23.7997 12.8393 23.7998 17.7188V25.5264H20.0225V24.0156C19.2669 24.9916 17.6605 25.8096 15.3623 25.8096ZM15.6777 22.3467C18.2906 22.3466 20.0224 20.6152 20.0225 17.6875C20.0225 14.7597 18.2906 13.0284 15.6777 13.0283C13.0332 13.0283 11.3018 14.7597 11.3018 17.6875C11.3018 20.6153 13.0332 22.3467 15.6777 22.3467Z" fill="#FF6200"/>
<path d="M42.688 24V9.92045H45.2022V24H42.688ZM51.4288 13.7622C54.7475 13.7622 56.0549 16.2562 56.0549 18.0061V24H53.6413V18.0665C53.6413 16.6384 52.5954 15.9948 51.4288 15.9948C50.2622 15.9948 49.2163 16.6384 49.2163 18.0665V24H46.8026V18.0061C46.8026 16.2562 48.11 13.7622 51.4288 13.7622ZM62.9684 9.77966V11.9922C61.319 11.9922 60.5346 12.5553 60.3536 13.9432H62.6264V16.1557H60.3335V24H57.9198V16.1557H56.9141V13.9432H57.9399C58.1612 11.2278 59.891 9.77966 62.9684 9.77966ZM63.4977 18.3682C63.4977 15.3109 65.4287 13.7622 68.4859 13.7622V15.9747C66.8768 15.9747 65.9114 16.7591 65.9114 18.3682V24H63.4977V18.3682ZM69.6916 11.0267C69.6916 10.3026 70.2749 9.6992 71.0191 9.6992C71.7634 9.6992 72.3466 10.3026 72.3466 11.0267C72.3466 11.791 71.7634 12.3743 71.0191 12.3743C70.2749 12.3743 69.6916 11.791 69.6916 11.0267ZM69.8123 24V13.9432H72.226V24H69.8123ZM78.3567 13.7622C81.6754 13.7622 82.9828 16.2562 82.9828 18.0061V24H80.5692V18.0665C80.5692 16.6384 79.5233 15.9948 78.3567 15.9948C77.1901 15.9948 76.1442 16.6384 76.1442 18.0665V24H73.7306V18.0061C73.7306 16.2562 75.0379 13.7622 78.3567 13.7622ZM94.6795 18.9917V23.5977C94.6795 26.2527 92.6883 28.1434 89.6511 28.1434C87.6197 28.1434 85.9905 27.2785 84.9445 25.951L86.9157 24.5632C87.4587 25.2269 88.2834 25.9309 89.6712 25.9309C91.3407 25.9309 92.2659 24.9453 92.2659 23.5977V23.0144C91.7832 23.638 90.7574 24.1609 89.2891 24.1609C86.3726 24.1609 84.2808 22.0691 84.2808 18.9515C84.2808 15.854 86.3726 13.7823 89.4701 13.7823C92.5877 13.7823 94.6795 15.8741 94.6795 18.9917ZM92.2659 18.9716C92.2659 17.101 91.1597 15.9948 89.4902 15.9948C87.8007 15.9948 86.6944 17.101 86.6944 18.9716C86.6944 20.8422 87.8007 21.9484 89.4902 21.9484C91.1597 21.9484 92.2659 20.8422 92.2659 18.9716ZM98.5744 17.5636H103.623C103.2 16.5781 102.295 16.0149 101.089 16.0149C99.9019 16.0149 98.9967 16.5781 98.5744 17.5636ZM101.089 21.9685C102.094 21.9685 102.879 21.5864 103.361 20.8824H105.996C105.333 22.9139 103.542 24.181 101.109 24.181C97.9911 24.181 95.8992 22.0892 95.8992 18.9716C95.8992 15.8741 97.9911 13.8024 101.109 13.8024C104.226 13.8024 106.298 15.8741 106.298 18.9716C106.298 19.2532 106.278 19.5147 106.258 19.7761H98.3933C98.6548 21.164 99.6605 21.9685 101.089 21.9685ZM107.622 22.6926C107.622 21.8076 108.225 21.2243 109.11 21.2243C109.995 21.2243 110.599 21.8076 110.599 22.6926C110.599 23.5977 109.995 24.181 109.11 24.181C108.225 24.181 107.622 23.5977 107.622 22.6926ZM117.096 13.8024C120.213 13.8024 122.305 15.8942 122.305 19.0118V24H119.892V23.0345C119.409 23.6581 118.383 24.181 116.915 24.181C113.998 24.181 111.906 22.0892 111.906 18.9716C111.906 15.8741 113.998 13.8024 117.096 13.8024ZM119.892 18.9917C119.892 17.1211 118.785 16.0149 117.116 16.0149C115.426 16.0149 114.32 17.1211 114.32 18.9917C114.32 20.8623 115.426 21.9685 117.116 21.9685C118.785 21.9685 119.892 20.8623 119.892 18.9917ZM123.784 11.0267C123.784 10.3026 124.367 9.6992 125.111 9.6992C125.856 9.6992 126.439 10.3026 126.439 11.0267C126.439 11.791 125.856 12.3743 125.111 12.3743C124.367 12.3743 123.784 11.791 123.784 11.0267ZM123.905 24V13.9432H126.318V24H123.905Z" fill="white"/>
</svg>
